<svg xmlns="http://www.w3.org/2000/svg" version="1.1" width="48" height="48">
	<defs>
		<linearGradient id="bg" x1="0" y1="1" x2="0" y2="0">
			<stop stop-color="#64C136" offset="0" />
			<stop stop-color="#80D057" offset="1" />
		</linearGradient>
		<clipPath id="shadeClip">
			<rect x="0" y="38" width="48" height="8" />
		</clipPath>
	</defs>
	<rect id="bg" x="8" y="2" width="32" height="44" rx="2" fill="url(#bg)" />
	<rect id="labelShade" x="8" y="2" width="32" height="44" rx="2" fill="#000" opacity="0.6" clip-path="url(#shadeClip)" />
	<path id="symbol" d="m 28.728658,18.399608 1.594778,-2.461652 c 0.102512,-0.155262 0.0571,-0.367551 -0.09959,-0.468637 -0.155194,-0.102512 -0.367551,-0.06002 -0.468637,0.09959 l -1.653299,2.546648 c -1.24033,-0.508148 -2.625671,-0.793689 -4.088677,-0.793689 -1.464431,0 -2.846853,0.285541 -4.090103,0.793689 l -1.650379,-2.546648 c -0.101019,-0.159607 -0.314868,-0.202105 -0.471556,-0.09959 -0.156688,0.101019 -0.202105,0.313375 -0.09959,0.468637 l 1.596204,2.461652 c -2.877607,1.410256 -4.81794,4.068175 -4.81794,7.117065 0,0.187442 0.01174,0.371964 0.02784,0.554992 h 19.012492 c 0.01609,-0.183028 0.02634,-0.36755 0.02634,-0.554992 6.8e-5,-3.04889 -1.941758,-5.706809 -4.817871,-7.117065 z m -9.123319,4.407891 c -0.505229,0 -0.915278,-0.40713 -0.915278,-0.913785 0,-0.506655 0.410049,-0.912359 0.915278,-0.912359 0.508149,0 0.915279,0.405636 0.915279,0.912359 0,0.506722 -0.410049,0.913785 -0.915279,0.913785 z m 8.814356,0 c -0.505229,0 -0.915278,-0.40713 -0.915278,-0.913785 0,-0.506655 0.410049,-0.912359 0.915278,-0.912359 0.506655,0 0.913785,0.405636 0.913785,0.912359 0,0.506655 -0.40713,0.913785 -0.913785,0.913785 z" fill="#000" opacity="0.6" />
	<text x="24" y="43.5" text-anchor="middle" fill="#FFF" font-family="Roboto" font-size="6">apk</text>
</svg>
