<svg xmlns="http://www.w3.org/2000/svg" version="1.1" width="64" height="64">
	<defs>
		<linearGradient x1="32" y1="51" x2="32" y2="2" gradientUnits="userSpaceOnUse" id="a">
			<stop stop-color="#64C136" offset="0" />
			<stop stop-color="#80D057" offset="1" />
		</linearGradient>
		<clipPath id="shadeClip">
			<rect x="0" y="51" width="64" height="13" />
		</clipPath>
	</defs>
	<rect id="paper" x="10" y="2" width="44" height="60" rx="3" ry="3" fill="url(#a)" />
	<rect id="labelShade" x="10" y="2" width="44" height="60" rx="3" ry="3" fill="#000" opacity="0.5" clip-path="url(#shadeClip)" />
	<path id="symbol" d="m 38.44817,24.363102 2.174697,-3.356798 c 0.13979,-0.211721 0.07786,-0.501206 -0.135808,-0.639051 -0.211628,-0.139789 -0.501206,-0.08184 -0.639051,0.135809 l -2.254498,3.472702 c -1.691359,-0.692929 -3.580461,-1.082303 -5.575469,-1.082303 -1.996952,0 -3.882073,0.389374 -5.577413,1.082303 l -2.250517,-3.472702 c -0.137753,-0.217646 -0.429366,-0.275598 -0.643031,-0.135809 -0.213665,0.137753 -0.275598,0.42733 -0.135809,0.639051 l 2.176642,3.356798 c -3.92401,1.923076 -6.569918,5.547511 -6.569918,9.705089 0,0.255602 0.01601,0.507223 0.03796,0.756807 H 44.98208 c 0.02194,-0.249584 0.03592,-0.501205 0.03592,-0.756807 9.3e-5,-4.157578 -2.647852,-7.782013 -6.569825,-9.705089 z m -12.440889,6.01076 c -0.688949,0 -1.248107,-0.555177 -1.248107,-1.24607 0,-0.690893 0.559158,-1.244126 1.248107,-1.244126 0.69293,0 1.248107,0.55314 1.248107,1.244126 0,0.690985 -0.559158,1.24607 -1.248107,1.24607 z m 12.019576,0 c -0.688949,0 -1.248106,-0.555177 -1.248106,-1.24607 0,-0.690893 0.559157,-1.244126 1.248106,-1.244126 0.690893,0 1.24607,0.55314 1.24607,1.244126 0,0.690893 -0.555177,1.24607 -1.24607,1.24607 z" fill="#000" opacity="0.5" />
	<g id="extension" fill="#FFF">
		<path d="m 27.57828,58.574665 q -0.61048,0 -1.025294,-0.3522 -0.406987,-0.352201 -0.406987,-0.931374 0,-0.626134 0.485254,-0.978334 0.485254,-0.360027 1.197481,-0.360027 0.63396,0 1.040947,0.2348 v -0.109573 q 0,-0.422641 -0.289587,-0.673094 -0.289587,-0.25828 -0.712227,-0.25828 -0.313067,0 -0.571347,0.148707 -0.250454,0.148706 -0.344374,0.406986 l -0.65744,-0.28176 q 0.133053,-0.344373 0.524387,-0.63396 0.391334,-0.297414 1.033121,-0.297414 0.735707,0 1.22096,0.430467 0.485254,0.430467 0.485254,1.213134 v 2.316695 h -0.688747 v -0.532214 h -0.03131 q -0.430467,0.657441 -1.260094,0.657441 z m 0.1174,-0.657441 q 0.446121,0 0.806147,-0.32872 0.367854,-0.336547 0.367854,-0.790494 -0.30524,-0.250453 -0.915721,-0.250453 -0.524387,0 -0.790493,0.226973 -0.266107,0.226974 -0.266107,0.532214 0,0.28176 0.242627,0.44612 0.242626,0.16436 0.555693,0.16436 z" />
		<path d="m 32.366002,58.574665 q -0.438293,0 -0.790494,-0.18784 -0.344373,-0.18784 -0.51656,-0.469601 h -0.03131 l 0.03131,0.532214 v 1.690561 h -0.720054 v -5.52563 h 0.688747 v 0.532214 h 0.03131 q 0.172187,-0.28176 0.51656,-0.469601 0.352201,-0.18784 0.790494,-0.18784 0.743534,0 1.283574,0.587001 0.540041,0.587 0.540041,1.455761 0,0.86876 -0.540041,1.455761 -0.54004,0.587 -1.283574,0.587 z m -0.1174,-0.657441 q 0.500907,0 0.860934,-0.37568 0.360027,-0.383507 0.360027,-1.00964 0,-0.626134 -0.360027,-1.001814 -0.360027,-0.383507 -0.860934,-0.383507 -0.508733,0 -0.86876,0.37568 -0.352201,0.37568 -0.352201,1.009641 0,0.63396 0.352201,1.00964 0.360027,0.37568 0.86876,0.37568 z" />
		<path d="m 35.492758,52.845541 v 3.451562 l 1.659254,-1.682734 h 0.923547 v 0.03131 l -1.494894,1.494894 1.565334,2.277561 v 0.03131 h -0.86876 l -1.205308,-1.807961 -0.579173,0.579174 v 1.228787 h -0.720054 v -5.603897 z" />
	</g>
</svg>
