<svg xmlns="http://www.w3.org/2000/svg" version="1.1" width="48" height="48">
	<defs>
		<linearGradient id="bg" x1="0" y1="1" x2="0" y2="0">
			<stop stop-color="#64C136" offset="0" />
			<stop stop-color="#80D057" offset="1" />
		</linearGradient>
		<clipPath id="shadeClip">
			<rect x="0" y="38" width="48" height="8" />
		</clipPath>
	</defs>
	<rect id="bg" x="8" y="2" width="32" height="44" rx="2" fill="url(#bg)" />
	<rect id="labelShade" x="8" y="2" width="32" height="44" rx="2" fill="#000" opacity="0.6" clip-path="url(#shadeClip)" />
	<path id="symbol" d="m 28.728658,18.399608 1.594778,-2.461652 c 0.102512,-0.155262 0.0571,-0.367551 -0.09959,-0.468637 -0.155194,-0.102512 -0.367551,-0.06002 -0.468637,0.09959 l -1.653299,2.546648 c -1.24033,-0.508148 -2.625671,-0.793689 -4.088677,-0.793689 -1.464431,0 -2.846853,0.285541 -4.090103,0.793689 l -1.650379,-2.546648 c -0.101019,-0.159607 -0.314868,-0.202105 -0.471556,-0.09959 -0.156688,0.101019 -0.202105,0.313375 -0.09959,0.468637 l 1.596204,2.461652 c -2.877607,1.410256 -4.81794,4.068175 -4.81794,7.117065 0,0.187442 0.01174,0.371964 0.02784,0.554992 h 19.012492 c 0.01609,-0.183028 0.02634,-0.36755 0.02634,-0.554992 6.8e-5,-3.04889 -1.941758,-5.706809 -4.817871,-7.117065 z m -9.123319,4.407891 c -0.505229,0 -0.915278,-0.40713 -0.915278,-0.913785 0,-0.506655 0.410049,-0.912359 0.915278,-0.912359 0.508149,0 0.915279,0.405636 0.915279,0.912359 0,0.506722 -0.410049,0.913785 -0.915279,0.913785 z m 8.814356,0 c -0.505229,0 -0.915278,-0.40713 -0.915278,-0.913785 0,-0.506655 0.410049,-0.912359 0.915278,-0.912359 0.506655,0 0.913785,0.405636 0.913785,0.912359 0,0.506655 -0.40713,0.913785 -0.913785,0.913785 z" fill="#000" opacity="0.6" />
	<g id="ext" fill="#FFF">
		<path d="m 21.831738,43.5 q -0.04687,-0.09375 -0.07617,-0.333984 -0.377929,0.392578 -0.902343,0.392578 -0.46875,0 -0.770508,-0.263672 -0.298828,-0.266602 -0.298828,-0.673828 0,-0.495117 0.375,-0.767578 0.377929,-0.275391 1.060547,-0.275391 h 0.527343 v -0.249023 q 0,-0.28418 -0.169922,-0.451172 -0.169921,-0.169922 -0.500976,-0.169922 -0.290039,0 -0.486328,0.146484 -0.196289,0.146485 -0.196289,0.354492 H 19.84834 q 0,-0.237304 0.166992,-0.457031 0.169922,-0.222656 0.457031,-0.351562 0.290039,-0.128907 0.635742,-0.128907 0.547852,0 0.858399,0.275391 0.310547,0.272461 0.322266,0.75293 v 1.458984 q 0,0.436523 0.111328,0.694336 V 43.5 Z m -0.899414,-0.413086 q 0.254883,0 0.483399,-0.131836 0.228515,-0.131836 0.331054,-0.342773 v -0.650391 h -0.424804 q -0.996094,0 -0.996094,0.583008 0,0.254883 0.169922,0.398437 0.169922,0.143555 0.436523,0.143555 z" />
		<path d="m 25.516113,41.950195 q 0,0.723633 -0.331054,1.166016 -0.331055,0.442383 -0.896485,0.442383 -0.577148,0 -0.908203,-0.366211 v 1.526367 h -0.541992 v -4.388672 h 0.495117 l 0.02637,0.351563 q 0.331055,-0.410157 0.919922,-0.410157 0.571289,0 0.902344,0.430664 0.333984,0.430664 0.333984,1.198243 z m -0.541992,-0.06152 q 0,-0.536133 -0.228515,-0.84668 -0.228516,-0.310547 -0.626954,-0.310547 -0.492187,0 -0.738281,0.436524 v 1.514648 q 0.243164,0.433594 0.744141,0.433594 0.389648,0 0.618164,-0.307617 0.231445,-0.310547 0.231445,-0.919922 z" />
		<path d="m 26.789356,42.032227 -0.339844,0.354492 V 43.5 H 25.90752 V 39 h 0.541992 v 2.72168 l 0.290039,-0.348633 0.987305,-1.042969 h 0.659179 L 27.152637,41.654297 28.52959,43.5 h -0.635742 z" />
	</g>
</svg>
