<svg xmlns="http://www.w3.org/2000/svg" version="1.1" width="48" height="48">
	<defs>
		<linearGradient id="bg" x1="0" y1="1" x2="0" y2="0">
			<stop stop-color="#f9b527" offset="0" />
			<stop stop-color="#ffd93b" offset="1" />
		</linearGradient>
		<clipPath id="shadeClip">
			<rect x="0" y="38" width="48" height="8" />
		</clipPath>
	</defs>
	<rect id="bg" x="8" y="2" width="32" height="44" rx="2" fill="url(#bg)" />
	<rect id="labelShade" x="8" y="2" width="32" height="44" rx="2" fill="#000" opacity="0.6" clip-path="url(#shadeClip)" />
	<g id="symbol">
		<rect x="16" y="14" width="16" height="16" rx="1" ry="1" fill="#000" opacity="0.6" />
		<g id="zip" fill="#FFF" opacity="0.9">
			<rect x="23" y="15" width="2" height="1" rx="0.45" ry="0.45" />
			<rect x="23" y="16.6" width="2" height="1" rx="0.45" ry="0.45" />
			<rect x="23" y="18.2" width="2" height="1" rx="0.45" ry="0.45" />
			<rect x="23" y="19.8" width="2" height="1" rx="0.45" ry="0.45" />
			<path d="M 24.718491,21.927541 C 24.679732,21.782891 24.566057,21.5 24.4,21.5 h -0.8 c -0.166056,0 -0.273569,0.259659 -0.318553,0.427541 l -0.464733,1.968147 c -0.130027,0.381901 -0.06764,0.806206 0.166659,1.135049 0.2343,0.328241 0.61418,0.469263 1.016595,0.469263 0.402416,0 0.78241,-0.141022 1.016706,-0.469263 0.234294,-0.328843 0.296609,-0.753148 0.16662,-1.13475 z m -0.194106,2.749785 c -0.241082,0.338625 -0.807751,0.338625 -1.048872,0 -0.120838,-0.169635 -0.153013,-0.388448 -0.08624,-0.585628 l 0.155972,-0.459605 h 0.9094 l 0.156012,0.46 c 0.06681,0.196881 0.03455,0.415694 -0.08628,0.585329 z"/>
		</g>
	</g>
	<g id="ext" fill="#FFF">
		<path d="m 19,41.926758 q 0,-0.741211 0.342774,-1.177735 0.342773,-0.439453 0.908203,-0.439453 0.58,0 0.905273,0.410157 l 0.02637,-0.351563 h 0.495117 v 3.09375 q 0,0.615234 -0.366211,0.969727 -0.363281,0.354492 -0.978516,0.354492 -0.342773,0 -0.670898,-0.146485 -0.328125,-0.146484 -0.501,-0.401367 l 0.28125,-0.325195 q 0.348633,0.430664 0.852539,0.430664 0.395508,0 0.615235,-0.222656 0.222656,-0.222657 0.222656,-0.626953 V 43.22168 q -0.325195,0.375 -0.887695,0.375 -0.556641,0 -0.902344,-0.448243 -0.342774,-0.448242 -0.342774,-1.221679 z m 0.544922,0.06152 q 0,0.536133 0.219727,0.84375 0.219726,0.304688 0.615234,0.304688 0.512695,0 0.75293,-0.465821 v -1.447265 q -0.249024,-0.454102 -0.74707,-0.454102 -0.395508,0 -0.618165,0.307617 -0.222656,0.307618 -0.222656,0.911133 z" />
		<path d="m 22.805078,43.095703 h 1.854492 v 0.442383 h -2.516601 v -0.398438 l 1.749023,-2.323242 h -1.722656 v -0.448242 h 2.402344 v 0.383789 z" />
		<path d="M 25.657812,43.538086 H 25.11582 v -3.17 h 0.542 z m -0.585937,-4.010742 q 0,-0.131836 0.0791,-0.222657 0.08203,-0.09082 0.240235,-0.09082 0.158203,0 0.240234,0.09082 0.08203,0.09082 0.08203,0.222657 0,0.131836 -0.08203,0.219726 -0.08203,0.08789 -0.240234,0.08789 -0.158203,0 -0.240235,-0.08789 -0.0791,-0.08789 -0.0791,-0.219726 z" />
		<path d="m 29,41.988281 q 0,0.723633 -0.331054,1.166016 -0.331055,0.442383 -0.896485,0.442383 -0.577148,0 -0.908203,-0.366211 v 1.526367 H 26.325 v -4.388672 h 0.495117 l 0.02637,0.351563 q 0.331055,-0.410157 0.92,-0.410157 0.571289,0 0.902344,0.430664 0.333984,0.430664 0.333984,1.198243 z m -0.542,-0.06152 q 0,-0.536133 -0.228515,-0.84668 -0.228516,-0.310547 -0.626953,-0.310547 -0.492188,0 -0.738282,0.436524 v 1.514648 q 0.243164,0.433594 0.744141,0.433594 0.389648,0 0.618164,-0.307617 0.231445,-0.310547 0.231445,-0.92 z" />
	</g>
</svg>
