<svg xmlns="http://www.w3.org/2000/svg" version="1.1" width="48" height="48">
	<defs>
		<linearGradient id="bg" x1="0" y1="1" x2="0" y2="0">
			<stop stop-color="#04A47F" offset="0" />
			<stop stop-color="#40CA85" offset="1" />
		</linearGradient>
		<clipPath id="shadeClip">
			<rect x="0" y="38" width="48" height="8" />
		</clipPath>
	</defs>
	<rect id="bg" x="8" y="2" width="32" height="44" rx="2" fill="url(#bg)" />
	<rect id="labelShade" x="8" y="2" width="32" height="44" rx="2" fill="#000" opacity="0.6" clip-path="url(#shadeClip)" />
	<g id="symbol">
		<rect x="16" y="14" width="16" height="16" rx="1" ry="1" fill="#000" opacity="0.6" />
		<g id="zip" fill="#FFF" opacity="0.9">
			<rect x="23" y="15" width="2" height="1" rx="0.45" ry="0.45" />
			<rect x="23" y="16.6" width="2" height="1" rx="0.45" ry="0.45" />
			<rect x="23" y="18.2" width="2" height="1" rx="0.45" ry="0.45" />
			<rect x="23" y="19.8" width="2" height="1" rx="0.45" ry="0.45" />
			<path d="M 24.718491,21.927541 C 24.679732,21.782891 24.566057,21.5 24.4,21.5 h -0.8 c -0.166056,0 -0.273569,0.259659 -0.318553,0.427541 l -0.464733,1.968147 c -0.130027,0.381901 -0.06764,0.806206 0.166659,1.135049 0.234299,0.328241 0.61418,0.469263 1.016595,0.469263 0.402416,0 0.78241,-0.141022 1.016706,-0.469263 0.234294,-0.328843 0.296609,-0.753148 0.16662,-1.13475 z m -0.194106,2.749785 c -0.241082,0.338625 -0.807751,0.338625 -1.048872,0 -0.120838,-0.169635 -0.153013,-0.388448 -0.08624,-0.585628 l 0.155972,-0.459605 h 0.909399 l 0.156012,0.459904 c 0.06681,0.196881 0.03455,0.415694 -0.08628,0.585329 z"/>
		</g>
	</g>
	<g id="ext" fill="#FFF">
		<path d="m 21.321973,43.057617 h 1.854492 V 43.5 H 20.659863 V 43.101562 L 22.408887,40.77832 H 20.68623 v -0.448242 h 2.402344 v 0.383789 z" />
		<path d="m 24.074707,43.5 h -0.541992 v -3.169922 h 0.541992 z M 23.48877,39.489258 q 0,-0.131836 0.0791,-0.222656 0.08203,-0.09082 0.240235,-0.09082 0.158203,0 0.240234,0.09082 0.08203,0.09082 0.08203,0.222656 0,0.131836 -0.08203,0.219726 -0.08203,0.08789 -0.240234,0.08789 -0.158204,0 -0.240235,-0.08789 -0.0791,-0.08789 -0.0791,-0.219726 z" />
		<path d="m 27.319629,41.950195 q 0,0.723633 -0.331055,1.166016 -0.331054,0.442383 -0.896484,0.442383 -0.577148,0 -0.908203,-0.366211 v 1.526367 h -0.541992 v -4.388672 h 0.495117 l 0.02637,0.351563 q 0.331055,-0.410157 0.919922,-0.410157 0.571289,0 0.902344,0.430664 0.333984,0.430664 0.333984,1.198243 z m -0.541992,-0.06152 q 0,-0.536133 -0.228516,-0.84668 -0.228515,-0.310547 -0.626953,-0.310547 -0.492187,0 -0.738281,0.436524 v 1.514648 q 0.243164,0.433594 0.74414,0.433594 0.389649,0 0.618165,-0.307617 0.231445,-0.310547 0.231445,-0.919922 z" />
	</g>
</svg>
