<svg xmlns="http://www.w3.org/2000/svg" version="1.1" width="48" height="48">
	<defs>
		<linearGradient id="bg" x1="0" y1="1" x2="0" y2="0">
			<stop stop-color="#D1D7DF" offset="0" />
			<stop stop-color="#E0E5E7" offset="1" />
		</linearGradient>
		<clipPath id="shadeClip">
			<rect x="0" y="38" width="48" height="8" />
		</clipPath>
	</defs>
	<rect id="bg" x="8" y="2" width="32" height="44" rx="2" fill="url(#bg)" />
	<rect id="labelShade" x="8" y="2" width="32" height="44" rx="2" fill="#000" opacity="0.6" clip-path="url(#shadeClip)" />
	<g id="symbol">
		<rect x="16" y="14" width="16" height="16" rx="1" ry="1" fill="#000" opacity="0.6" />
		<g id="zip" fill="#FFF" opacity="0.9">
			<rect x="23" y="15" width="2" height="1" rx="0.45" ry="0.45" />
			<rect x="23" y="16.6" width="2" height="1" rx="0.45" ry="0.45" />
			<rect x="23" y="18.2" width="2" height="1" rx="0.45" ry="0.45" />
			<rect x="23" y="19.8" width="2" height="1" rx="0.45" ry="0.45" />
			<path d="M 24.718491,21.927541 C 24.679732,21.782891 24.566057,21.5 24.4,21.5 h -0.8 c -0.166056,0 -0.273569,0.259659 -0.318553,0.427541 l -0.464733,1.968147 c -0.130027,0.381901 -0.06764,0.806206 0.166659,1.135049 0.234299,0.328241 0.61418,0.469263 1.016595,0.469263 0.402416,0 0.78241,-0.141022 1.016706,-0.469263 0.234294,-0.328843 0.296609,-0.753148 0.16662,-1.13475 z m -0.194106,2.749785 c -0.241082,0.338625 -0.807751,0.338625 -1.048872,0 -0.120838,-0.169635 -0.153013,-0.388448 -0.08624,-0.585628 l 0.155972,-0.459605 h 0.909399 l 0.156012,0.459904 c 0.06681,0.196881 0.03455,0.415694 -0.08628,0.585329 z"/>
		</g>
	</g>
	<g id="ext" fill="#FFF">
		<path d="m 17.354883,44 q -0.04687,-0.09375 -0.07617,-0.333984 -0.37793,0.392578 -0.902344,0.392578 -0.46875,0 -0.770508,-0.263672 -0.298828,-0.266602 -0.298828,-0.673828 0,-0.495117 0.375,-0.767578 0.37793,-0.275391 1.060547,-0.275391 h 0.527344 v -0.249023 q 0,-0.28418 -0.169922,-0.451172 -0.169922,-0.169922 -0.500977,-0.169922 -0.290039,0 -0.486328,0.146484 -0.196289,0.146485 -0.196289,0.354492 h -0.544922 q 0,-0.237304 0.166993,-0.457031 0.169921,-0.222656 0.457031,-0.351562 0.290039,-0.128907 0.635742,-0.128907 0.547852,0 0.858398,0.275391 0.310547,0.272461 0.322266,0.75293 v 1.458984 q 0,0.436523 0.111328,0.694336 V 44 Z m -0.899414,-0.413086 q 0.254883,0 0.483398,-0.131836 0.228516,-0.131836 0.331055,-0.342773 v -0.650391 h -0.424805 q -0.996094,0 -0.996094,0.583008 0,0.254883 0.169922,0.398437 0.169922,0.143555 0.436524,0.143555 z" />
		<path d="m 19.99375,41.316406 q -0.123047,-0.02051 -0.266602,-0.02051 -0.533203,0 -0.723632,0.454102 V 44 h -0.541993 v -3.169922 h 0.527344 l 0.0088,0.366211 q 0.266602,-0.424805 0.75586,-0.424805 0.158203,0 0.240234,0.04102 z" />
		<path d="m 21.507617,43.616211 q 0.290039,0 0.506836,-0.175781 0.216797,-0.175782 0.240234,-0.439453 h 0.512696 q -0.01465,0.27246 -0.1875,0.518554 -0.172852,0.246094 -0.462891,0.392578 -0.287109,0.146485 -0.609375,0.146485 -0.647461,0 -1.03125,-0.430664 -0.380859,-0.433594 -0.380859,-1.183594 v -0.09082 q 0,-0.462891 0.169922,-0.823243 0.169921,-0.360351 0.486328,-0.55957 0.319336,-0.199219 0.752929,-0.199219 0.533204,0 0.884766,0.319336 0.354492,0.319336 0.37793,0.829102 h -0.512696 q -0.02344,-0.307617 -0.234375,-0.503906 -0.208007,-0.199219 -0.515625,-0.199219 -0.413086,0 -0.641601,0.298828 -0.225586,0.295898 -0.225586,0.858398 v 0.102539 q 0,0.547852 0.225586,0.84375 0.225586,0.295899 0.644531,0.295899 z" />
		<path d="m 23.71875,41.213867 q 0.360352,-0.442383 0.9375,-0.442383 1.004883,0 1.013672,1.133789 V 44 H 25.12793 v -2.097656 q -0.0029,-0.342774 -0.158203,-0.506836 -0.152344,-0.164063 -0.477539,-0.164063 -0.263672,0 -0.462891,0.140625 -0.199219,0.140625 -0.310547,0.369141 V 44 h -0.541992 v -4.5 h 0.541992 z" />
		<path d="M 26.870312,44 H 26.32832 v -3.169922 h 0.541992 z m -0.585937,-4.010742 q 0,-0.131836 0.0791,-0.222656 0.08203,-0.09082 0.240235,-0.09082 0.158203,0 0.240234,0.09082 0.08203,0.09082 0.08203,0.222656 0,0.131836 -0.08203,0.219726 -0.08203,0.08789 -0.240234,0.08789 -0.158203,0 -0.240235,-0.08789 -0.0791,-0.08789 -0.0791,-0.219726 z" />
		<path d="m 28.583398,43.264648 0.785157,-2.43457 h 0.553711 L 28.785547,44 h -0.413086 l -1.148438,-3.169922 h 0.553711 z" />
		<path d="m 31.55918,44.058594 q -0.644531,0 -1.048828,-0.421875 -0.404297,-0.424805 -0.404297,-1.133789 v -0.09961 q 0,-0.471679 0.178711,-0.84082 0.18164,-0.37207 0.503906,-0.580078 0.325195,-0.210938 0.703125,-0.210938 0.618164,0 0.960938,0.407227 0.342773,0.407226 0.342773,1.166016 v 0.225585 h -2.147461 q 0.01172,0.46875 0.272461,0.75879 0.263672,0.287109 0.667969,0.287109 0.287109,0 0.486328,-0.117188 0.199219,-0.117187 0.348633,-0.310546 l 0.331054,0.257812 q -0.398437,0.612305 -1.195312,0.612305 z m -0.06738,-2.841797 q -0.328125,0 -0.550781,0.240234 -0.222656,0.237305 -0.275391,0.667969 h 1.587891 v -0.04102 q -0.02344,-0.413086 -0.222656,-0.638672 -0.199219,-0.228515 -0.539063,-0.228515 z" />
	</g>
</svg>
