<svg xmlns="http://www.w3.org/2000/svg" version="1.1" width="64" height="64">
	<defs>
		<linearGradient x1="32" y1="51" x2="32" y2="2" gradientUnits="userSpaceOnUse" id="a">
			<stop stop-color="#8798A9" offset="0" />
			<stop stop-color="#AEB6BE" offset="1" />
		</linearGradient>
		<clipPath id="shadeClip">
			<rect x="0" y="51" width="64" height="13" />
		</clipPath>
	</defs>
	<rect id="paper" x="10" y="2" width="44" height="60" rx="3" ry="3" fill="url(#a)" />
	<rect id="labelShade" x="10" y="2" width="44" height="60" rx="3" ry="3" fill="#000" opacity="0.7" clip-path="url(#shadeClip)" />
	<g id="symbol">
		<rect x="22" y="16" width="20" height="22" rx="1" ry="1" fill="#000" opacity="0.7" />
		<g id="zip" fill="#FFF" opacity="0.9">
			<rect x="30.9" y="16.7" width="2.2" height="1.1" rx="0.45" ry="0.45" />
			<rect x="30.9" y="18.3" width="2.2" height="1.1" rx="0.45" ry="0.45" />
			<rect x="30.9" y="19.9" width="2.2" height="1.1" rx="0.45" ry="0.45" />
			<rect x="30.9" y="21.5" width="2.2" height="1.1" rx="0.45" ry="0.45" />
			<rect x="30.9" y="23.1" width="2.2" height="1.1" rx="0.45" ry="0.45" />
			<rect x="30.9" y="24.7" width="2.2" height="1.1" rx="0.45" ry="0.45" />
			<path d="m 32.833785,27.370793 v -0.694166 c 0,-0.193402 -0.156288,-0.350257 -0.348992,-0.350257 H 31.51517 c -0.192704,0 -0.349031,0.156893 -0.349031,0.350257 v 0.693825 l -0.539308,1.59015 c -0.150893,0.443185 -0.07849,0.935579 0.193402,1.317191 0.271898,0.380914 0.712784,0.608421 1.179729,0.608421 0.467038,0 0.907963,-0.227507 1.179856,-0.608421 0.271892,-0.381612 0.344206,-0.874006 0.193358,-1.316844 z m -0.225253,2.496876 c -0.279769,0.392964 -0.937371,0.392964 -1.217184,0 -0.140233,-0.196856 -0.177567,-0.450781 -0.100072,-0.679603 l 0.180999,-0.533357 h 1.05533 l 0.181049,0.533704 c 0.07753,0.228475 0.0401,0.4824 -0.100122,0.679256 z"/>
		</g>
	</g>
	<g id="text" fill="#FFF">
		<path d="m 29.08805,59.571003 -0.672031,-0.344211 2.597972,-4.671433 h -2.835642 l 0.01639,-0.721204 h 3.614215 v 0.770377 z" />
		<path d="m 32.402616,59.439875 v -0.65564 l 2.286543,-2.671731 H 32.46818 v -0.688422 h 3.147071 v 0.65564 l -2.286544,2.671732 h 2.319326 v 0.688421 z" />
	</g>
</svg>
