<svg xmlns="http://www.w3.org/2000/svg" version="1.1" width="64" height="64">
	<defs>
		<linearGradient x1="32" y1="51" x2="32" y2="2" gradientUnits="userSpaceOnUse" id="a">
			<stop stop-color="#546DB3" offset="0" />
			<stop stop-color="#8494C2" offset="1" />
		</linearGradient>
		<clipPath id="shadeClip">
			<rect x="0" y="51" width="64" height="13" />
		</clipPath>
	</defs>
	<rect id="paper" x="10" y="2" width="44" height="60" rx="3" ry="3" fill="url(#a)" />
	<rect id="labelShade" x="10" y="2" width="44" height="60" rx="3" ry="3" fill="#000" opacity="0.6" clip-path="url(#shadeClip)" />
	<g id="symbol">
		<rect x="22" y="16" width="20" height="22" rx="1" ry="1" fill="#000" opacity="0.6" />
		<g id="zip" fill="#FFF" opacity="0.9">
			<rect x="30.9" y="16.7" width="2.2" height="1.1" rx="0.45" ry="0.45" />
			<rect x="30.9" y="18.3" width="2.2" height="1.1" rx="0.45" ry="0.45" />
			<rect x="30.9" y="19.9" width="2.2" height="1.1" rx="0.45" ry="0.45" />
			<rect x="30.9" y="21.5" width="2.2" height="1.1" rx="0.45" ry="0.45" />
			<rect x="30.9" y="23.1" width="2.2" height="1.1" rx="0.45" ry="0.45" />
			<rect x="30.9" y="24.7" width="2.2" height="1.1" rx="0.45" ry="0.45" />
			<path d="m 32.833785,27.370793 v -0.694166 c 0,-0.193402 -0.156288,-0.350257 -0.348992,-0.350257 H 31.51517 c -0.192704,0 -0.349031,0.156893 -0.349031,0.350257 v 0.693825 l -0.539308,1.59015 c -0.150893,0.443185 -0.07849,0.935579 0.193402,1.317191 0.271898,0.380914 0.712784,0.608421 1.179729,0.608421 0.467038,0 0.907963,-0.227507 1.179856,-0.608421 0.271892,-0.381612 0.344206,-0.874006 0.193358,-1.316844 z m -0.225253,2.496876 c -0.279769,0.392964 -0.937371,0.392964 -1.217184,0 -0.140233,-0.196856 -0.177567,-0.450781 -0.100072,-0.679603 l 0.180999,-0.533357 h 1.05533 l 0.181049,0.533704 c 0.07753,0.228475 0.0401,0.4824 -0.100122,0.679256 z"/>
		</g>
	</g>
	<g id="text" fill="#FFF">
		<path d="m 27.479778,58.971002 q -0.639249,0 -1.07361,-0.368797 -0.426166,-0.368798 -0.426166,-0.975265 0,-0.655639 0.508121,-1.024437 0.50812,-0.376992 1.253911,-0.376992 0.663835,0 1.090001,0.245864 v -0.114737 q 0,-0.442556 -0.303234,-0.704812 -0.303233,-0.270452 -0.74579,-0.270452 -0.32782,0 -0.598271,0.155715 -0.262256,0.155714 -0.360602,0.426166 l -0.688422,-0.295038 q 0.139324,-0.360602 0.549098,-0.663835 0.409775,-0.311429 1.081806,-0.311429 0.770377,0 1.278498,0.450752 0.50812,0.450752 0.50812,1.270302 v 2.425867 H 28.832035 V 58.28258 h -0.03278 q -0.450753,0.688422 -1.319475,0.688422 z M 27.60271,58.28258 q 0.467143,0 0.844136,-0.344211 0.385189,-0.352406 0.385189,-0.827745 -0.319625,-0.262256 -0.958874,-0.262256 -0.549098,0 -0.827745,0.23767 -0.278647,0.237669 -0.278647,0.557293 0,0.295038 0.254061,0.467144 0.25406,0.172105 0.58188,0.172105 z" />
		<path d="m 32.191035,58.971002 q -0.901504,0 -1.483385,-0.606467 -0.58188,-0.614662 -0.58188,-1.532558 0,-0.917895 0.58188,-1.524362 0.581881,-0.614662 1.483385,-0.614662 0.672031,0 1.114588,0.32782 0.442557,0.327819 0.647444,0.827745 l -0.688422,0.286842 q -0.311429,-0.753986 -1.122783,-0.753986 -0.499925,0 -0.885113,0.409775 -0.376993,0.409775 -0.376993,1.040828 0,0.631054 0.376993,1.040828 0.385188,0.409775 0.885113,0.409775 0.844136,0 1.163761,-0.753985 l 0.67203,0.286842 q -0.204887,0.49173 -0.663835,0.827745 -0.450752,0.32782 -1.122783,0.32782 z" />
		<path d="m 36.400447,58.971002 q -0.9097,0 -1.483385,-0.606467 -0.565489,-0.606467 -0.565489,-1.532558 0,-0.876918 0.549098,-1.507971 0.557294,-0.631053 1.417821,-0.631053 0.893309,0 1.426017,0.58188 0.540902,0.58188 0.540902,1.557144 l -0.0082,0.139324 h -3.171657 q 0.03278,0.606466 0.401579,0.958873 0.376993,0.352406 0.876918,0.352406 0.811354,0 1.098197,-0.688422 l 0.67203,0.278647 q -0.196691,0.467144 -0.647444,0.786768 -0.450752,0.311429 -1.106392,0.311429 z m 1.081806,-2.622559 q -0.02459,-0.344211 -0.319625,-0.65564 -0.286842,-0.311429 -0.860527,-0.311429 -0.41797,0 -0.729399,0.262256 -0.303233,0.262256 -0.41797,0.704813 z" />
	</g>
</svg>
