<svg xmlns="http://www.w3.org/2000/svg" version="1.1" width="64" height="64">
	<defs>
		<linearGradient x1="32" y1="51" x2="32" y2="2" gradientUnits="userSpaceOnUse" id="a">
			<stop stop-color="#04A47F" offset="0" />
			<stop stop-color="#40CA85" offset="1" />
		</linearGradient>
		<clipPath id="shadeClip">
			<rect x="0" y="51" width="64" height="13" />
		</clipPath>
	</defs>
	<rect id="paper" x="10" y="2" width="44" height="60" rx="3" ry="3" fill="url(#a)" />
	<rect id="labelShade" x="10" y="2" width="44" height="60" rx="3" ry="3" fill="#000" opacity="0.5" clip-path="url(#shadeClip)" />
	<g id="symbol">
		<rect x="22" y="16" width="20" height="22" rx="1" ry="1" fill="#000" opacity="0.5" />
		<g id="zip" fill="#FFF" opacity="0.9">
			<rect x="30.9" y="16.7" width="2.2" height="1.1" rx="0.45" ry="0.45" />
			<rect x="30.9" y="18.3" width="2.2" height="1.1" rx="0.45" ry="0.45" />
			<rect x="30.9" y="19.9" width="2.2" height="1.1" rx="0.45" ry="0.45" />
			<rect x="30.9" y="21.5" width="2.2" height="1.1" rx="0.45" ry="0.45" />
			<rect x="30.9" y="23.1" width="2.2" height="1.1" rx="0.45" ry="0.45" />
			<rect x="30.9" y="24.7" width="2.2" height="1.1" rx="0.45" ry="0.45" />
			<path d="m 32.833785,27.370793 v -0.694166 c 0,-0.193402 -0.156288,-0.350257 -0.348992,-0.350257 H 31.51517 c -0.192704,0 -0.349031,0.156893 -0.349031,0.350257 v 0.693825 l -0.539308,1.59015 c -0.150893,0.443185 -0.07849,0.935579 0.193402,1.317191 0.271898,0.380914 0.712784,0.608421 1.179729,0.608421 0.467038,0 0.907963,-0.227507 1.179856,-0.608421 0.271892,-0.381612 0.344206,-0.874006 0.193358,-1.316844 z m -0.225253,2.496876 c -0.279769,0.392964 -0.937371,0.392964 -1.217184,0 -0.140233,-0.196856 -0.177567,-0.450781 -0.100072,-0.679603 l 0.180999,-0.533357 h 1.05533 l 0.181049,0.533704 c 0.07753,0.228475 0.0401,0.4824 -0.100122,0.679256 z"/>
		</g>
	</g>
	<g id="text" fill="#FFF">
		<path d="m 27.113,59.039773 v -0.655639 l 2.286544,-2.671732 h -2.22098 V 55.02398 h 3.147071 v 0.65564 l -2.286544,2.671732 h 2.319326 v 0.688421 z" />
		<path d="m 31.986887,54.015934 q -0.155714,0.155714 -0.376993,0.155714 -0.221278,0 -0.376992,-0.155714 -0.155715,-0.155715 -0.155715,-0.376993 0,-0.221278 0.155715,-0.376993 0.155714,-0.155714 0.376992,-0.155714 0.221279,0 0.376993,0.155714 0.155715,0.155715 0.155715,0.376993 0,0.221278 -0.155715,0.376993 z m 0,5.023839 H 31.232902 V 55.02398 h 0.753985 z" />
		<path d="m 35.065961,59.170901 q -0.458948,0 -0.827745,-0.196692 -0.360602,-0.196691 -0.540903,-0.491729 h -0.03278 l 0.03278,0.557293 v 1.770228 H 32.943327 V 55.02398 h 0.721204 v 0.557294 h 0.03278 q 0.180301,-0.295038 0.540903,-0.49173 0.368797,-0.196692 0.827745,-0.196692 0.778572,0 1.344061,0.614662 0.565489,0.614663 0.565489,1.524363 0,0.9097 -0.565489,1.524362 -0.565489,0.614662 -1.344061,0.614662 z M 34.943028,58.48248 q 0.524512,0 0.901505,-0.393384 0.376993,-0.40158 0.376993,-1.057219 0,-0.65564 -0.376993,-1.049024 -0.376993,-0.401579 -0.901505,-0.401579 -0.532707,0 -0.9097,0.393384 -0.368797,0.393383 -0.368797,1.057219 0,0.663835 0.368797,1.057219 0.376993,0.393384 0.9097,0.393384 z" />
	</g>
</svg>
