<svg xmlns="http://www.w3.org/2000/svg" version="1.1" width="48" height="48">
	<defs>
		<linearGradient id="bg" x1="0" y1="1" x2="0" y2="0">
			<stop stop-color="#93A0B2" offset="0" />
			<stop stop-color="#D9DEE4" offset="1" />
		</linearGradient>
		<clipPath id="shadeClip">
			<rect x="0" y="38" width="48" height="8" />
		</clipPath>
	</defs>
	<rect id="bg" x="8" y="2" width="32" height="44" rx="2" fill="url(#bg)" />
	<rect id="labelShade" x="8" y="2" width="32" height="44" rx="2" fill="#000" opacity="0.6" clip-path="url(#shadeClip)" />
	<path id="symbol" d="M 19.25,18.5 l9.5,0 a2.4,2.4 0 1 0 -2.4,-2.4 l0,9.5 a2.4,2.4 0 1 0 2.4,-2.4 l-9.5,0 a2.4,2.4 0 1 0 2.4,2.4 l0,-9.5 a2.4,2.4 0 1 0 -2.4,2.4 Z" fill="none" stroke="#000" stroke-width="1.6" opacity="0.6" />
	<g id="ext" fill="#FFF">
		<path d="m 20.562109,44 q -0.04687,-0.09375 -0.07617,-0.333984 -0.37793,0.392578 -0.902344,0.392578 -0.46875,0 -0.770508,-0.263672 -0.298828,-0.266602 -0.298828,-0.673828 0,-0.495117 0.375,-0.767578 0.37793,-0.275391 1.060547,-0.275391 h 0.527343 v -0.249023 q 0,-0.28418 -0.169921,-0.451172 -0.169922,-0.169922 -0.500977,-0.169922 -0.290039,0 -0.486328,0.146484 -0.196289,0.146485 -0.196289,0.354492 h -0.544922 q 0,-0.237304 0.166992,-0.457031 0.169922,-0.222656 0.457031,-0.351562 0.290039,-0.128907 0.635743,-0.128907 0.547851,0 0.858398,0.275391 0.310547,0.272461 0.322266,0.75293 v 1.458984 q 0,0.436523 0.111328,0.694336 V 44 Z m -0.899414,-0.413086 q 0.254883,0 0.483399,-0.131836 0.228515,-0.131836 0.331054,-0.342773 v -0.650391 h -0.424804 q -0.996094,0 -0.996094,0.583008 0,0.254883 0.169922,0.398437 0.169922,0.143555 0.436523,0.143555 z" />
		<path d="m 23.514453,43.15918 q 0,-0.219727 -0.166992,-0.339844 -0.164063,-0.123047 -0.577149,-0.210938 -0.410156,-0.08789 -0.65332,-0.210937 -0.240234,-0.123047 -0.357422,-0.292969 -0.114258,-0.169922 -0.114258,-0.404297 0,-0.389648 0.328125,-0.659179 0.331055,-0.269532 0.84375,-0.269532 0.539063,0 0.873047,0.278321 0.336914,0.27832 0.336914,0.711914 h -0.544921 q 0,-0.222657 -0.19043,-0.383789 -0.1875,-0.161133 -0.47461,-0.161133 -0.295898,0 -0.46289,0.128906 -0.166992,0.128906 -0.166992,0.336914 0,0.196289 0.155273,0.295899 0.155274,0.09961 0.55957,0.190429 0.407227,0.09082 0.65918,0.216797 0.251953,0.125977 0.37207,0.304688 0.123047,0.175781 0.123047,0.430664 0,0.424804 -0.339843,0.682617 -0.339844,0.254883 -0.881836,0.254883 -0.38086,0 -0.673829,-0.134766 -0.292968,-0.134766 -0.45996,-0.375 -0.164063,-0.243164 -0.164063,-0.524414 h 0.541992 q 0.01465,0.272461 0.216797,0.433594 0.205078,0.158203 0.539063,0.158203 0.307617,0 0.492187,-0.123047 0.1875,-0.125977 0.1875,-0.333984 z" />
		<path d="m 25.833984,43.616211 q 0.290039,0 0.506836,-0.175781 0.216797,-0.175782 0.240235,-0.439453 h 0.512695 q -0.01465,0.27246 -0.1875,0.518554 -0.172852,0.246094 -0.462891,0.392578 -0.287109,0.146485 -0.609375,0.146485 -0.647461,0 -1.03125,-0.430664 -0.380859,-0.433594 -0.380859,-1.183594 v -0.09082 q 0,-0.462891 0.169922,-0.823243 0.169922,-0.360351 0.486328,-0.55957 0.319336,-0.199219 0.75293,-0.199219 0.533203,0 0.884765,0.319336 0.354492,0.319336 0.37793,0.829102 h -0.512695 q -0.02344,-0.307617 -0.234375,-0.503906 -0.208008,-0.199219 -0.515625,-0.199219 -0.413086,0 -0.641602,0.298828 -0.225586,0.295898 -0.225586,0.858398 v 0.102539 q 0,0.547852 0.225586,0.84375 0.225586,0.295899 0.644531,0.295899 z" />
		<path d="M 28.091992,44 H 27.55 v -3.169922 h 0.541992 z m -0.585938,-4.010742 q 0,-0.131836 0.0791,-0.222656 0.08203,-0.09082 0.240234,-0.09082 0.158203,0 0.240235,0.09082 0.08203,0.09082 0.08203,0.222656 0,0.131836 -0.08203,0.219726 -0.08203,0.08789 -0.240235,0.08789 -0.158203,0 -0.240234,-0.08789 -0.0791,-0.08789 -0.0791,-0.219726 z" />
		<path d="m 29.348047,44 h -0.541992 v -3.169922 h 0.541992 z m -0.585938,-4.010742 q 0,-0.131836 0.0791,-0.222656 0.08203,-0.09082 0.240234,-0.09082 0.158203,0 0.240235,0.09082 0.08203,0.09082 0.08203,0.222656 0,0.131836 -0.08203,0.219726 -0.08203,0.08789 -0.240235,0.08789 -0.158203,0 -0.240234,-0.08789 -0.0791,-0.08789 -0.0791,-0.219726 z" />
	</g>
</svg>
