<svg xmlns="http://www.w3.org/2000/svg" version="1.1" width="64" height="64">
	<defs>
		<linearGradient x1="32" y1="51" x2="32" y2="2" gradientUnits="userSpaceOnUse" id="a">
			<stop stop-color="#D1D7DF" offset="0" />
			<stop stop-color="#E0E5E7" offset="1" />
		</linearGradient>
		<clipPath id="shadeClip">
			<rect x="0" y="51" width="64" height="13" />
		</clipPath>
	</defs>
	<rect id="paper" x="10" y="2" width="44" height="60" rx="3" ry="3" fill="url(#a)" />
	<rect id="labelShade" x="10" y="2" width="44" height="60" rx="3" ry="3" fill="#000" opacity="0.5" clip-path="url(#shadeClip)" />
	<g id="symbol">
		<rect x="22" y="16" width="20" height="22" rx="1" ry="1" fill="#000" opacity="0.5" />
		<g id="zip" fill="#FFF" opacity="0.9">
			<rect x="30.9" y="16.7" width="2.2" height="1.1" rx="0.45" ry="0.45" />
			<rect x="30.9" y="18.3" width="2.2" height="1.1" rx="0.45" ry="0.45" />
			<rect x="30.9" y="19.9" width="2.2" height="1.1" rx="0.45" ry="0.45" />
			<rect x="30.9" y="21.5" width="2.2" height="1.1" rx="0.45" ry="0.45" />
			<rect x="30.9" y="23.1" width="2.2" height="1.1" rx="0.45" ry="0.45" />
			<rect x="30.9" y="24.7" width="2.2" height="1.1" rx="0.45" ry="0.45" />
			<path d="m 32.833785,27.370793 v -0.694166 c 0,-0.193402 -0.156288,-0.350257 -0.348992,-0.350257 H 31.51517 c -0.192704,0 -0.349031,0.156893 -0.349031,0.350257 v 0.693825 l -0.539308,1.59015 c -0.150893,0.443185 -0.07849,0.935579 0.193402,1.317191 0.271898,0.380914 0.712784,0.608421 1.179729,0.608421 0.467038,0 0.907963,-0.227507 1.179856,-0.608421 0.271892,-0.381612 0.344206,-0.874006 0.193358,-1.316844 z m -0.225253,2.496876 c -0.279769,0.392964 -0.937371,0.392964 -1.217184,0 -0.140233,-0.196856 -0.177567,-0.450781 -0.100072,-0.679603 l 0.180999,-0.533357 h 1.05533 l 0.181049,0.533704 c 0.07753,0.228475 0.0401,0.4824 -0.100122,0.679256 z"/>
		</g>
	</g>
	<g id="text" fill="#FFF">
		<path d="m 21.379776,59.271 q -0.639249,0 -1.07361,-0.368798 Q 19.88,58.533405 19.88,57.926938 q 0,-0.65564 0.508121,-1.024437 0.508121,-0.376993 1.253911,-0.376993 0.663835,0 1.090001,0.245865 v -0.114737 q 0,-0.442557 -0.303233,-0.704813 -0.303234,-0.270451 -0.74579,-0.270451 -0.32782,0 -0.598272,0.155715 -0.262256,0.155714 -0.360601,0.426165 l -0.688422,-0.295038 q 0.139323,-0.360601 0.549098,-0.663835 0.409775,-0.311429 1.081806,-0.311429 0.770376,0 1.278497,0.450753 0.508121,0.450752 0.508121,1.270302 v 2.425867 h -0.721204 v -0.557294 h -0.03278 Q 22.248499,59.271 21.379776,59.271 Z m 0.122933,-0.688422 q 0.467143,0 0.844136,-0.344211 0.385188,-0.352406 0.385188,-0.827745 -0.319624,-0.262256 -0.958873,-0.262256 -0.549098,0 -0.827745,0.237669 -0.278647,0.23767 -0.278647,0.557294 0,0.295038 0.25406,0.467143 0.254061,0.172106 0.581881,0.172106 z" />
		<path d="m 25.057249,59.139872 h -0.753986 v -4.015794 h 0.721204 v 0.65564 h 0.03278 q 0.114737,-0.32782 0.467143,-0.540903 0.360602,-0.213083 0.696617,-0.213083 0.336016,0 0.56549,0.09835 l -0.286843,0.704813 q -0.147519,-0.05737 -0.401579,-0.05737 -0.409775,0 -0.729399,0.327819 -0.311429,0.319625 -0.311429,0.844137 z" />
		<path d="m 28.876222,59.271 q -0.901504,0 -1.483384,-0.606467 -0.581881,-0.614662 -0.581881,-1.532558 0,-0.917896 0.581881,-1.524362 0.58188,-0.614663 1.483384,-0.614663 0.672031,0 1.114588,0.32782 0.442557,0.32782 0.647444,0.827745 l -0.688421,0.286843 q -0.311429,-0.753986 -1.122784,-0.753986 -0.499925,0 -0.885113,0.409775 -0.376993,0.409775 -0.376993,1.040828 0,0.631053 0.376993,1.040828 0.385188,0.409775 0.885113,0.409775 0.844137,0 1.163761,-0.753986 l 0.672031,0.286843 Q 30.457953,58.607164 29.999006,58.94318 29.548253,59.271 28.876222,59.271 Z" />
		<path d="m 32.068241,53.271896 v 1.852182 l -0.03278,0.557294 h 0.03278 q 0.16391,-0.286842 0.516316,-0.483534 0.352406,-0.204888 0.753986,-0.204888 0.74579,0 1.139174,0.458948 0.393383,0.458948 0.393383,1.229325 v 2.458649 H 34.117115 V 56.79596 q 0,-1.114588 -0.991655,-1.114588 -0.467144,0 -0.762182,0.376993 -0.295037,0.368797 -0.295037,0.860527 v 2.22098 h -0.753986 v -5.867976 z" />
		<path d="m 36.583703,54.116032 q -0.155715,0.155715 -0.376993,0.155715 -0.221279,0 -0.376993,-0.155715 -0.155714,-0.155714 -0.155714,-0.376993 0,-0.221278 0.155714,-0.376992 0.155714,-0.155715 0.376993,-0.155715 0.221278,0 0.376993,0.155715 0.155714,0.155714 0.155714,0.376992 0,0.221279 -0.155714,0.376993 z m 0,5.02384 h -0.753986 v -4.015794 h 0.753986 z" />
		<path d="M 38.769468,59.139872 37.14676,55.124078 h 0.819549 l 1.180152,3.114289 h 0.01639 l 1.196542,-3.114289 h 0.803159 l -1.639099,4.015794 z" />
		<path d="m 43.346012,59.271 q -0.9097,0 -1.483385,-0.606467 -0.565489,-0.606467 -0.565489,-1.532558 0,-0.876918 0.549098,-1.507971 0.557294,-0.631054 1.417821,-0.631054 0.893309,0 1.426017,0.581881 0.540902,0.58188 0.540902,1.557144 l -0.0082,0.139323 h -3.171658 q 0.03278,0.606467 0.40158,0.958874 0.376993,0.352406 0.876918,0.352406 0.811354,0 1.098197,-0.688422 l 0.672031,0.278647 q -0.196687,0.467143 -0.64744,0.786768 Q 44.001652,59.271 43.346012,59.271 Z m 1.081806,-2.622559 q -0.02459,-0.344211 -0.319625,-0.65564 -0.286842,-0.311429 -0.860527,-0.311429 -0.41797,0 -0.729399,0.262256 -0.303234,0.262256 -0.417971,0.704813 z" />
	</g>
</svg>
