<svg xmlns="http://www.w3.org/2000/svg" version="1.1" width="48" height="48">
	<defs>
		<linearGradient id="bg" x1="0" y1="1" x2="0" y2="0">
			<stop stop-color="#FF1526" offset="0" />
			<stop stop-color="#FF461C" offset="1" />
		</linearGradient>
		<clipPath id="shadeClip">
			<rect x="0" y="38" width="48" height="8" />
		</clipPath>
	</defs>
	<rect id="bg" x="8" y="2" width="32" height="44" rx="2" fill="url(#bg)" />
	<rect id="labelShade" x="8" y="2" width="32" height="44" rx="2" fill="#000" opacity="0.6" clip-path="url(#shadeClip)" />
	<g id="symbol">
		<rect x="16" y="14" width="16" height="16" rx="1" ry="1" fill="#000" opacity="0.6" />
		<g id="zip" fill="#FFF" opacity="0.9">
			<rect x="23" y="15" width="2" height="1" rx="0.45" ry="0.45" />
			<rect x="23" y="16.6" width="2" height="1" rx="0.45" ry="0.45" />
			<rect x="23" y="18.2" width="2" height="1" rx="0.45" ry="0.45" />
			<rect x="23" y="19.8" width="2" height="1" rx="0.45" ry="0.45" />
			<path d="M 24.718491,21.927541 C 24.679732,21.782891 24.566057,21.5 24.4,21.5 h -0.8 c -0.166056,0 -0.273569,0.259659 -0.318553,0.427541 l -0.464733,1.968147 c -0.130027,0.381901 -0.06764,0.806206 0.166659,1.135049 0.234299,0.328241 0.61418,0.469263 1.016595,0.469263 0.402416,0 0.78241,-0.141022 1.016706,-0.469263 0.234294,-0.328843 0.296609,-0.753148 0.16662,-1.13475 z m -0.194106,2.749785 c -0.241082,0.338625 -0.807751,0.338625 -1.048872,0 -0.120838,-0.169635 -0.153013,-0.388448 -0.08624,-0.585628 l 0.155972,-0.459605 h 0.909399 l 0.156012,0.459904 c 0.06681,0.196881 0.03455,0.415694 -0.08628,0.585329 z"/>
		</g>
	</g>
	<g id="ext" fill="#FFF">
		<path d="m 22.338867,40.901367 q -0.123047,-0.02051 -0.266601,-0.02051 -0.533204,0 -0.723633,0.454102 v 2.25 h -0.541992 v -3.169922 h 0.527343 l 0.0088,0.366211 q 0.266602,-0.424805 0.75586,-0.424805 0.158203,0 0.240234,0.04102 z" />
		<path d="m 24.676758,43.584961 q -0.04687,-0.09375 -0.07617,-0.333984 -0.37793,0.392578 -0.902344,0.392578 -0.46875,0 -0.770508,-0.263672 -0.298828,-0.266602 -0.298828,-0.673828 0,-0.495118 0.375,-0.767578 0.37793,-0.275391 1.060547,-0.275391 h 0.527344 v -0.249024 q 0,-0.284179 -0.169922,-0.451171 -0.169922,-0.169922 -0.500977,-0.169922 -0.290039,0 -0.486328,0.146484 -0.196289,0.146484 -0.196289,0.354492 h -0.544922 q 0,-0.237304 0.166993,-0.457031 0.169921,-0.222656 0.457031,-0.351562 0.290039,-0.128907 0.635742,-0.128907 0.547852,0 0.858398,0.275391 0.310547,0.272461 0.322266,0.75293 v 1.458984 q 0,0.436523 0.111328,0.694336 v 0.04687 z m -0.899414,-0.413086 q 0.254883,0 0.483398,-0.131836 0.228516,-0.131836 0.331055,-0.342773 v -0.650391 h -0.424805 q -0.996094,0 -0.996094,0.583008 0,0.254883 0.169922,0.398437 0.169922,0.143555 0.436524,0.143555 z" />
		<path d="m 27.515625,40.901367 q -0.123047,-0.02051 -0.266602,-0.02051 -0.533203,0 -0.723632,0.454102 v 2.25 h -0.541993 v -3.169922 h 0.527344 l 0.0088,0.366211 q 0.266602,-0.424805 0.75586,-0.424805 0.158203,0 0.240234,0.04102 z" />
	</g>
</svg>
