<svg width="16" height="16" xmlns="http://www.w3.org/2000/svg">
	<path d="M 8 2 A 6 6 0 0 0 2 8 A 6 6 0 0 0 8 14 A 6 6 0 0 0 14 8 A 6 6 0 0 0 8 2 z M 8 4.7597656 C 8.812415 4.7597656 9.5078125 5.3105106 9.5078125 6.3613281 C 9.5078125 7.0473831 9.1888835 7.7435681 8.7675781 8.1738281 C 8.6033581 8.6045906 8.8975894 8.7648569 8.9589844 8.7871094 C 9.5314078 8.9722169 11.087138 9.896213 11.0625 11.240234 L 4.9375 11.240234 C 4.9128625 9.896213 6.4705462 8.9722169 7.0429688 8.7871094 C 7.1043638 8.7648569 7.3966419 8.6045906 7.2324219 8.1738281 C 6.8111169 7.7435681 6.4941406 7.0473831 6.4941406 6.3613281 C 6.4941405 5.3105106 7.187585 4.7597656 8 4.7597656 z" fill="#BEBEBE"/>
</svg>
